PathFileType  4	(X/Y/Z) C:\Users\antoi\Documents\MyRepositories\mobilecap\ResultsAnalysis
DataRate	CameraRate	NumFrames	NumMarkers	Units	OrigDataRate	OrigDataStartFrame	OrigNumFrames
100.0	100.0	6	51	mm	100.0	1081	2161
Frame#	Time	r_knee			r_shank_antsup			r_ankle			r_calc			r_5meta			r_toe			L_knee			L_shank_antsup			L_ankle			L_calc			L_5meta			L_toe			r_sh2			r_sh3			r_sh4			L_sh2			L_sh3			r_thigh1			r_thigh2			r_thigh3			r_thigh4			r_thigh5			L_thigh1			L_thigh2			L_thigh3			L_thigh4			r.ASIS			r.PSIS			L.ASIS			L.PSIS			C7			R_Shoulder			L_Shoulder			R_Sternum			L_Sternum			R_humerus			R_elbow_med			R_elbow_lat			R_forearm			R_wrist_radius			R_wrist_ulna			L_humerus			L_elbow_med			L_elbow_lat			L_forearm			L_wrist_radius			L_wrist_ulna			R_HJC			L_HJC			R_HJC_reg			L_HJC_reg			
		X1	Y1	Z1	X2	Y2	Z2	X3	Y3	Z3	X4	Y4	Z4	X5	Y5	Z5	X6	Y6	Z6	X7	Y7	Z7	X8	Y8	Z8	X9	Y9	Z9	X10	Y10	Z10	X11	Y11	Z11	X12	Y12	Z12	X13	Y13	Z13	X14	Y14	Z14	X15	Y15	Z15	X16	Y16	Z16	X17	Y17	Z17	X18	Y18	Z18	X19	Y19	Z19	X20	Y20	Z20	X21	Y21	Z21	X22	Y22	Z22	X23	Y23	Z23	X24	Y24	Z24	X25	Y25	Z25	X26	Y26	Z26	X27	Y27	Z27	X28	Y28	Z28	X29	Y29	Z29	X30	Y30	Z30	X31	Y31	Z31	X32	Y32	Z32	X33	Y33	Z33	X34	Y34	Z34	X35	Y35	Z35	X36	Y36	Z36	X37	Y37	Z37	X38	Y38	Z38	X39	Y39	Z39	X40	Y40	Z40	X41	Y41	Z41	X42	Y42	Z42	X43	Y43	Z43	X44	Y44	Z44	X45	Y45	Z45	X46	Y46	Z46	X47	Y47	Z47	X48	Y48	Z48	X49	Y49	Z49	X50	Y50	Z50	X51	Y51	Z51	

1081	10.80000000	-176.16320	494.93660	-416.82959	-136.78623	445.05329	-418.90910	-256.54900	95.96808	-430.76692	-317.43300	56.94076	-482.11290	-137.97195	40.30226	-391.20071	-96.13559	61.43262	-445.15184	-178.28733	493.77748	-779.94980	-155.41503	408.52131	-799.24076	-249.26862	96.67156	-771.87653	-306.30956	56.46945	-719.22520	-134.52965	42.35432	-812.49974	-87.16913	60.57169	-761.57217	-155.44756	331.14593	-429.44218	-207.50621	452.32895	-387.26501	-224.42388	337.24036	-382.35655	-258.98131	309.39396	-805.19337	-241.24917	430.65716	-802.57510	-131.27304	796.06910	-484.91135	-106.71970	689.27751	-467.30752	-127.80517	670.22811	-404.21753	-198.68105	794.21221	-394.39314	-179.11345	680.58860	-385.23678	-186.05646	817.25582	-780.26109	-168.08892	677.71941	-802.07511	-295.37634	800.09529	-770.47454	-276.31778	660.80326	-761.77699	-163.97366	964.59406	-466.05802	-352.23019	991.19975	-545.38637	-161.42013	948.40219	-705.85114	-351.72074	990.79501	-644.04316	-279.09689	1454.91922	-605.22822	-205.61299	1426.09609	-439.20681	-205.78163	1416.80579	-764.26533	-157.93280	1370.76136	-583.74874	-160.72493	1369.34848	-617.61457	-222.50435	1201.06400	-340.38072	-292.50587	1100.49753	-360.58050	-241.86919	1114.07006	-310.79360	-122.72135	1127.86969	-385.97775	-58.44748	1163.09883	-457.20991	-43.15129	1122.73746	-444.49177	-223.86592	1192.64543	-857.25967	-275.46651	1077.26382	-816.27488	-241.90341	1085.87870	-879.21618	-111.99673	1106.68329	-807.23686	-41.17790	1148.55404	-743.16590	-31.90168	1104.39518	-737.16381	-235.85146	879.96704	-500.23393	-245.75405	878.92328	-690.64515	-230.43220	882.61032	-499.38242	-229.61442	881.96007	-658.01179	
1082	10.81000000	-176.45835	494.99115	-416.87339	-137.04543	445.10210	-419.01227	-256.57490	95.96184	-430.75913	-317.44238	56.92562	-482.10656	-137.99249	40.30408	-391.19401	-96.14065	61.42912	-445.14766	-178.47354	493.73484	-779.98949	-155.46110	408.48713	-799.34776	-249.27769	96.70678	-771.96992	-306.27621	56.52428	-719.26832	-134.52497	42.34352	-812.46324	-87.17239	60.57764	-761.54952	-155.54637	331.17223	-429.54979	-207.77232	452.47815	-387.36980	-224.63912	337.16889	-382.47006	-259.00425	309.36048	-805.28313	-241.29994	430.64660	-802.67886	-132.16455	796.12849	-484.96478	-107.36877	689.36230	-467.38728	-128.47911	670.28425	-404.45843	-199.65460	794.22447	-394.49648	-179.71752	680.63598	-385.31578	-187.27947	817.19318	-780.42265	-168.98477	677.64871	-802.16230	-296.68370	799.78728	-770.52268	-277.07791	660.42794	-761.77231	-165.26582	964.46553	-466.19943	-353.52785	990.93033	-545.50023	-162.83874	948.16372	-705.68799	-352.96669	990.52225	-644.28147	-279.16347	1454.79507	-605.03960	-205.73535	1425.69881	-439.14811	-205.87326	1416.64089	-764.04642	-158.24555	1370.20623	-583.53310	-160.98111	1368.92742	-617.50798	-222.90661	1200.41841	-340.71003	-292.92775	1100.16285	-360.88527	-242.40453	1113.56200	-311.16563	-123.10686	1127.44594	-386.21080	-58.80216	1162.84580	-457.19108	-43.00324	1122.99750	-443.92565	-223.88621	1192.56569	-857.26479	-275.81647	1077.04746	-816.44670	-242.02497	1085.75987	-879.22213	-112.24859	1106.66328	-807.18277	-41.49905	1148.52590	-743.08339	-32.24253	1104.33063	-736.96293	-237.16226	879.79922	-500.25532	-247.00981	878.64062	-690.66876	-231.74257	882.46371	-499.50347	-230.84238	881.80945	-657.93543	
1083	10.82000000	-176.78842	495.05073	-416.89053	-137.34993	445.09570	-419.11620	-256.56185	95.98423	-430.76082	-317.44791	56.90208	-482.09746	-138.00827	40.31279	-391.19375	-96.15365	61.43886	-445.14994	-178.68588	493.72910	-780.09745	-155.58132	408.50252	-799.43181	-249.29681	96.69445	-771.97510	-306.32014	56.51820	-719.29444	-134.51489	42.33319	-812.40646	-87.17836	60.60425	-761.55085	-155.60972	331.19992	-429.65202	-208.05193	452.50585	-387.45407	-224.74582	337.21328	-382.48815	-259.06897	309.46722	-805.37379	-241.36456	430.61697	-802.77372	-133.14109	796.19047	-484.87592	-108.07605	689.49635	-467.29675	-129.22113	670.35962	-404.56685	-200.67101	794.24347	-394.52673	-180.46651	680.67804	-385.30792	-188.50093	817.08883	-780.54082	-169.83904	677.70632	-802.40972	-297.95573	799.27728	-770.20332	-277.85273	660.04298	-761.72123	-166.59190	964.33540	-466.31760	-354.82555	990.58764	-545.84109	-164.22108	948.09995	-705.78178	-354.48645	990.41797	-644.10050	-279.17111	1454.64337	-604.76996	-205.81598	1425.34446	-439.06907	-205.97777	1416.41523	-763.81301	-158.43790	1369.76301	-583.33939	-161.21028	1368.48478	-617.36414	-223.24709	1199.79112	-340.96107	-293.34046	1099.75730	-361.17913	-242.85432	1113.03402	-311.48362	-123.53720	1127.03226	-386.46352	-59.19906	1162.57896	-457.06762	-43.92877	1122.07536	-444.96741	-223.98611	1192.42123	-857.20627	-276.15068	1076.71555	-816.56913	-242.18872	1085.63518	-879.24135	-112.55012	1106.62216	-807.09953	-41.84738	1148.47025	-742.91685	-32.60729	1104.24147	-736.65391	-238.44989	879.60851	-500.40249	-248.35413	878.53971	-690.81340	-232.76472	882.03739	-499.64605	-232.21913	881.76539	-658.06107	
1084	10.83000000	-177.08556	495.05780	-416.96994	-137.59084	445.09925	-419.24214	-256.57028	96.00050	-430.74434	-317.45246	56.86393	-482.09093	-138.00703	40.32158	-391.20369	-96.17045	61.47678	-445.15352	-178.89402	493.74772	-780.22346	-155.76103	408.57588	-799.51700	-249.33163	96.67313	-771.96294	-306.37978	56.47887	-719.31131	-134.51285	42.34514	-812.39504	-87.19763	60.67996	-761.58497	-155.70532	331.21464	-429.72501	-208.22961	452.37146	-387.59522	-224.74807	337.24660	-382.50113	-259.15979	309.65576	-805.41704	-241.46101	430.56772	-802.83561	-134.22056	796.28078	-484.69502	-108.88314	689.68226	-467.16242	-129.97659	670.44037	-404.53828	-201.74023	794.19794	-394.58727	-181.36892	680.62853	-385.34201	-189.71643	816.96977	-780.61087	-170.65546	677.75693	-802.56617	-299.04575	798.81808	-769.86072	-278.61044	659.68915	-761.69295	-167.93439	964.24033	-466.35636	-356.19155	990.31395	-546.11968	-165.64719	948.04943	-705.99037	-356.08393	990.29766	-643.85883	-279.13635	1454.47974	-604.42497	-205.87595	1424.97627	-438.96440	-206.08265	1416.16895	-763.58238	-159.08045	1369.72596	-583.24758	-161.43778	1368.01391	-617.19482	-223.41549	1199.26804	-341.09463	-293.79735	1099.24359	-361.56770	-243.24833	1112.40916	-311.82495	-123.94981	1126.65332	-386.64797	-59.58456	1162.34107	-456.94810	-45.22731	1120.73145	-446.52462	-224.16420	1192.21372	-857.09663	-276.38604	1076.37202	-816.59570	-242.41581	1085.48828	-879.23315	-112.86492	1106.56054	-807.02025	-42.18605	1148.40218	-742.71884	-32.94091	1104.16988	-736.37937	-239.75997	879.45515	-500.52228	-249.77652	878.45187	-690.92772	-233.86280	881.68722	-499.67125	-233.68771	881.66015	-658.19767	
1085	10.84000000	-177.35808	494.95236	-417.14380	-137.70678	445.16037	-419.37654	-256.64075	95.94882	-430.73795	-317.46850	56.81420	-482.08777	-137.99696	40.33218	-391.21915	-96.18753	61.53178	-445.15757	-179.12528	493.73741	-780.29948	-155.92170	408.62107	-799.62266	-249.37613	96.65903	-771.96526	-306.40019	56.46527	-719.34564	-134.52172	42.36204	-812.39280	-87.23118	60.77521	-761.61607	-155.83496	331.20201	-429.76200	-208.27191	452.24028	-387.76222	-224.75062	337.18724	-382.60475	-259.26776	309.72849	-805.39447	-241.59754	430.50241	-802.86221	-135.33045	796.36357	-484.56952	-109.75727	689.85691	-467.12555	-130.74886	670.50895	-404.49791	-202.89149	794.04839	-394.73595	-182.30903	680.49868	-385.48544	-190.89602	816.88506	-780.74006	-171.46883	677.65293	-802.43416	-300.12504	798.59600	-770.01275	-279.33941	659.33205	-761.62907	-169.30841	964.10206	-466.38717	-357.63578	990.11656	-546.17538	-167.11161	947.91378	-706.17741	-357.49168	989.99439	-644.03719	-279.08877	1454.32071	-604.09497	-205.91921	1424.56550	-438.81148	-206.17117	1415.88609	-763.30741	-160.22782	1369.90049	-583.14265	-161.66920	1367.47920	-616.97548	-223.48811	1198.75227	-341.18199	-294.22775	1098.71936	-361.85695	-243.61418	1111.70597	-312.17429	-124.28976	1126.26157	-386.75503	-59.92179	1162.13508	-456.94622	-45.85627	1120.18254	-446.89607	-224.39413	1191.96832	-856.98295	-276.60435	1076.14128	-816.50552	-242.75735	1085.24940	-879.04517	-113.16714	1106.50287	-807.04550	-42.51213	1148.33629	-742.58175	-33.20425	1104.13239	-736.29383	-241.11690	879.28669	-500.62484	-251.15906	878.25055	-691.02880	-235.32223	881.60180	-499.67358	-235.08856	881.40343	-658.30176	
1086	10.85000000	-177.65026	494.77728	-417.38467	-137.78916	445.20470	-419.54644	-256.73231	95.83432	-430.81628	-317.49398	56.76614	-482.08291	-137.97923	40.36802	-391.23597	-96.20643	61.57260	-445.16373	-179.40266	493.68271	-780.31858	-156.04494	408.59204	-799.69261	-249.41539	96.64084	-771.96786	-306.39490	56.45541	-719.36622	-134.53659	42.37209	-812.35228	-87.25882	60.84696	-761.62240	-155.92681	331.15854	-429.79242	-208.27656	452.19486	-387.84634	-224.80351	337.13253	-382.70426	-259.37535	309.54759	-805.41392	-241.77155	430.40520	-802.82986	-136.42202	796.37121	-484.62559	-110.59707	689.94792	-467.12653	-131.59991	670.57521	-404.48849	-204.13382	793.77801	-394.84254	-183.20008	680.33218	-385.62745	-192.01963	816.83358	-780.90638	-172.25342	677.47847	-802.21091	-301.30941	798.37482	-770.52883	-280.04052	658.99314	-761.63614	-170.73388	963.85380	-466.48500	-359.11566	989.91300	-546.10688	-168.60636	947.72188	-706.28697	-358.79541	989.68020	-644.33924	-279.01115	1454.13547	-603.80743	-205.90029	1424.12515	-438.66984	-206.22547	1415.47145	-762.94074	-160.89609	1369.86184	-582.66514	-161.90631	1366.84399	-616.76100	-223.58723	1198.16452	-341.22740	-294.56277	1098.27460	-361.84976	-243.93117	1111.05006	-312.38183	-124.60634	1125.80708	-386.82418	-60.27598	1161.84326	-456.96876	-45.95540	1120.34450	-446.18594	-224.68036	1191.64390	-856.78207	-276.91772	1076.00328	-816.37616	-243.20526	1084.91153	-878.70124	-113.48995	1106.42729	-807.12134	-42.86086	1148.29821	-742.56351	-33.43297	1104.11071	-736.43730	-242.53557	879.04622	-500.73789	-252.56773	878.01676	-691.14239	-236.96053	881.51100	-499.81181	-236.44394	881.13489	-658.44362	
